<svg width="52" height="24" viewBox="0 0 52 24" fill="none" xmlns="http://www.w3.org/2000/svg">
<rect width="50" height="4" rx="2" transform="matrix(-1 0 0 1 52 10)" fill="#B1B4C5"/>
<path fill-rule="evenodd" clip-rule="evenodd" d="M12.6452 2.00926C11.9205 1.28741 10.7468 1.29323 10.0293 2.02224L1.43921 10.7504C0.727819 11.4732 0.733585 12.6349 1.45212 13.3506C2.1768 14.0724 3.35052 14.0666 4.06799 13.3376L12.6581 4.60944C13.3695 3.88661 13.3637 2.72499 12.6452 2.00926Z" fill="#B1B4C5"/>
<path fill-rule="evenodd" clip-rule="evenodd" d="M12.6451 21.9907C13.3637 21.2749 13.3694 20.1133 12.658 19.3905L4.06793 10.6623C3.35045 9.93332 2.17673 9.9275 1.45205 10.6494C0.73352 11.3651 0.727754 12.5267 1.43915 13.2495L10.0292 21.9777C10.7467 22.7067 11.9204 22.7125 12.6451 21.9907Z" fill="#B1B4C5"/>
</svg>
