<svg width="96" height="96" viewBox="0 0 96 96" fill="none" xmlns="http://www.w3.org/2000/svg">
<path d="M28.1599 43.3494L36.3693 31.8064C32.957 31.2376 26.691 31.1115 21.5583 36.2442C13.4676 44.3349 10.1909 61.8128 9.50785 66.0437L30.0706 86.6064C33.7722 86.2894 50.1615 84.1013 65.9538 68.309C66.1215 67.968 69.9682 65.1255 66.8231 61.9804C65.322 60.4793 62.837 60.5073 61.3033 62.041C60.5225 62.8218 59.308 62.8333 58.5434 62.0687C57.7788 61.3041 57.7903 60.0896 58.5712 59.3088L64.1515 53.7284C66.9874 50.8925 64.3143 46.1083 60.3563 47.2576L55.7876 51.1687C54.9532 51.896 53.7132 51.77 53.0275 50.9775C52.3188 50.1569 52.4703 48.9146 53.2767 48.2153C69.2354 34.2135 66.9059 35.8998 77.1726 26.2763C81.0088 23.0824 76.1833 17.4328 72.4032 20.6675L47.5656 43.0027C46.8432 43.6181 45.7357 43.6297 45.0246 42.9746C44.2041 42.266 44.1852 41.245 44.7216 40.4384L62.0463 13.5052C64.5787 10.0757 59.5947 6.26681 56.9274 9.72416L31.3117 45.5499C30.6939 46.4429 29.4491 46.6479 28.6006 46.0232C27.7496 45.452 27.5166 44.2119 28.1599 43.3494Z" fill="#3B4262"/>
</svg>
